<svg id="visual" viewBox="0 0 900 600" width="900" height="600" xmlns="http://www.w3.org/2000/svg" xmlns:xlink="http://www.w3.org/1999/xlink" version="1.1"><rect x="0" y="0" width="900" height="600" fill="#363435"></rect><path d="M0 466L10.7 475C21.3 484 42.7 502 64.2 496.5C85.7 491 107.3 462 128.8 448C150.3 434 171.7 435 193 446.2C214.3 457.3 235.7 478.7 257 479.2C278.3 479.7 299.7 459.3 321.2 457.5C342.7 455.7 364.3 472.3 385.8 471C407.3 469.7 428.7 450.3 450 455.7C471.3 461 492.7 491 514.2 491.8C535.7 492.7 557.3 464.3 578.8 450.8C600.3 437.3 621.7 438.7 643 446.7C664.3 454.7 685.7 469.3 707 477.3C728.3 485.3 749.7 486.7 771.2 492.8C792.7 499 814.3 510 835.8 503.2C857.3 496.3 878.7 471.7 889.3 459.3L900 447L900 601L889.3 601C878.7 601 857.3 601 835.8 601C814.3 601 792.7 601 771.2 601C749.7 601 728.3 601 707 601C685.7 601 664.3 601 643 601C621.7 601 600.3 601 578.8 601C557.3 601 535.7 601 514.2 601C492.7 601 471.3 601 450 601C428.7 601 407.3 601 385.8 601C364.3 601 342.7 601 321.2 601C299.7 601 278.3 601 257 601C235.7 601 214.3 601 193 601C171.7 601 150.3 601 128.8 601C107.3 601 85.7 601 64.2 601C42.7 601 21.3 601 10.7 601L0 601Z" fill="#fbba00" stroke-linecap="round" stroke-linejoin="miter"></path></svg>