<svg id="visual" viewBox="0 0 900 600" width="900" height="600" xmlns="http://www.w3.org/2000/svg" xmlns:xlink="http://www.w3.org/1999/xlink" version="1.1"><rect x="0" y="0" width="900" height="600" fill="#363435"></rect><path d="M0 400L10.7 413.5C21.3 427 42.7 454 64.2 445.7C85.7 437.3 107.3 393.7 128.8 372.7C150.3 351.7 171.7 353.3 193 370.2C214.3 387 235.7 419 257 419.8C278.3 420.7 299.7 390.3 321.2 387.3C342.7 384.3 364.3 408.7 385.8 406.5C407.3 404.3 428.7 375.7 450 383.8C471.3 392 492.7 437 514.2 438.2C535.7 439.3 557.3 396.7 578.8 376.3C600.3 356 621.7 358 643 370C664.3 382 685.7 404 707 416C728.3 428 749.7 430 771.2 439.3C792.7 448.7 814.3 465.3 835.8 455.2C857.3 445 878.7 408 889.3 389.5L900 371L900 601L889.3 601C878.7 601 857.3 601 835.8 601C814.3 601 792.7 601 771.2 601C749.7 601 728.3 601 707 601C685.7 601 664.3 601 643 601C621.7 601 600.3 601 578.8 601C557.3 601 535.7 601 514.2 601C492.7 601 471.3 601 450 601C428.7 601 407.3 601 385.8 601C364.3 601 342.7 601 321.2 601C299.7 601 278.3 601 257 601C235.7 601 214.3 601 193 601C171.7 601 150.3 601 128.8 601C107.3 601 85.7 601 64.2 601C42.7 601 21.3 601 10.7 601L0 601Z" fill="#fbba00" stroke-linecap="round" stroke-linejoin="miter"></path></svg>