<svg id="visual" viewBox="0 0 900 600" width="900" height="600" xmlns="http://www.w3.org/2000/svg" xmlns:xlink="http://www.w3.org/1999/xlink" version="1.1"><rect x="0" y="0" width="900" height="600" fill="#000000"></rect><g transform="translate(-55.23187547754304 629.7285128714319)"><path d="M209 -345.3C311.3 -302.9 462.7 -328.7 561 -282.5C659.3 -236.3 704.7 -118.2 707.6 1.7C710.4 121.5 670.9 243 569.3 283.6C467.8 324.2 304.2 283.9 199 283.1C93.8 282.4 46.9 321.2 -24.1 363C-95.2 404.8 -190.3 449.7 -296.7 451.1C-403.1 452.5 -520.7 410.5 -568.3 328.1C-615.8 245.7 -593.4 122.8 -581.2 7.1C-568.9 -108.7 -566.8 -217.3 -504.8 -274.8C-442.8 -332.2 -320.9 -338.5 -226.8 -385.6C-132.7 -432.8 -66.3 -520.9 -6.5 -509.6C53.3 -498.4 106.7 -387.8 209 -345.3" fill="#ffb608"></path></g></svg>